<svg id="link-solid" xmlns="http://www.w3.org/2000/svg" width="35.928" height="35.928" viewBox="0 0 35.928 35.928">
  <path id="link-solid-2" data-name="link-solid" d="M22.919,13.009a10.661,10.661,0,0,1,.025,15.058l-.025.026L18.2,32.809A10.666,10.666,0,0,1,3.119,17.724l2.6-2.6a1.122,1.122,0,0,1,1.915.744,12.93,12.93,0,0,0,.68,3.7,1.129,1.129,0,0,1-.265,1.166l-.918.918a5.052,5.052,0,1,0,7.1,7.191l4.716-4.715a5.051,5.051,0,0,0,0-7.146,5.257,5.257,0,0,0-.726-.6,1.125,1.125,0,0,1-.487-.885,2.8,2.8,0,0,1,.821-2.092l1.477-1.477a1.127,1.127,0,0,1,1.444-.121,10.7,10.7,0,0,1,1.44,1.207Zm9.89-9.89a10.678,10.678,0,0,0-15.084,0L13.009,7.834l-.025.026a10.668,10.668,0,0,0,1.465,16.265A1.127,1.127,0,0,0,15.893,24l1.477-1.477a2.8,2.8,0,0,0,.821-2.092,1.125,1.125,0,0,0-.487-.885,5.256,5.256,0,0,1-.726-.6,5.051,5.051,0,0,1,0-7.146l4.716-4.715a5.052,5.052,0,1,1,7.1,7.191l-.918.918a1.129,1.129,0,0,0-.265,1.166,12.93,12.93,0,0,1,.68,3.7,1.122,1.122,0,0,0,1.915.744l2.6-2.6a10.677,10.677,0,0,0,0-15.084Z" transform="translate(0 0)" fill="#686868"/>
</svg>
