<svg xmlns="http://www.w3.org/2000/svg" width="27.912" height="36.279" viewBox="0 0 27.912 36.279">
  <path id="pinterest-p-brands" d="M14.828,6.5C7.371,6.5,0,11.472,0,19.518c0,5.117,2.878,8.025,4.623,8.025.72,0,1.134-2.006,1.134-2.573,0-.676-1.723-2.115-1.723-4.928a9.823,9.823,0,0,1,10.205-9.987c4.95,0,8.613,2.813,8.613,7.981,0,3.86-1.548,11.1-6.564,11.1a3.227,3.227,0,0,1-3.358-3.184c0-2.748,1.919-5.408,1.919-8.243,0-4.812-6.825-3.94-6.825,1.875a8.539,8.539,0,0,0,.7,3.685c-1,4.318-3.053,10.75-3.053,15.2,0,1.374.2,2.726.327,4.1.247.276.124.247.5.109,3.663-5.015,3.533-6,5.19-12.56.894,1.7,3.206,2.617,5.037,2.617,7.719,0,11.187-7.523,11.187-14.3C27.912,11.21,21.675,6.5,14.828,6.5Z" transform="translate(0 -6.5)" fill="#686868"/>
</svg>
