<svg id="twitter-brands" xmlns="http://www.w3.org/2000/svg" width="37.216" height="30.226" viewBox="0 0 37.216 30.226">
  <path id="twitter-brands-2" data-name="twitter-brands" d="M33.39,55.615c.024.331.024.661.024.992,0,10.083-7.675,21.7-21.7,21.7A21.554,21.554,0,0,1,0,74.884a15.778,15.778,0,0,0,1.842.094,15.275,15.275,0,0,0,9.469-3.259A7.641,7.641,0,0,1,4.18,66.43a9.618,9.618,0,0,0,1.441.118,8.067,8.067,0,0,0,2.007-.26A7.628,7.628,0,0,1,1.511,58.8v-.094a7.682,7.682,0,0,0,3.448.968A7.639,7.639,0,0,1,2.6,49.475a21.681,21.681,0,0,0,15.727,7.982,8.61,8.61,0,0,1-.189-1.747,7.635,7.635,0,0,1,13.2-5.219,15.017,15.017,0,0,0,4.841-1.842,7.607,7.607,0,0,1-3.353,4.2,15.291,15.291,0,0,0,4.392-1.181A16.4,16.4,0,0,1,33.39,55.615Z" transform="translate(0 -48.082)" fill="#686868"/>
</svg>
